<svg xmlns="http://www.w3.org/2000/svg" viewBox="0 0 1600 1050" role="img" aria-labelledby="title desc"><title id="title">Safar Link operations overview</title><desc id="desc">A bright blue and white operations dashboard with route movement, parcels, tickets and schedules.</desc><rect width="1600" height="1050" rx="42" fill="#f6faff"/><rect x="28" y="28" width="1544" height="994" rx="34" fill="#fff" stroke="#d9e6f5"/><rect x="28" y="28" width="252" height="994" rx="34" fill="#0b63ce"/><rect x="280" y="28" width="1292" height="76" fill="#fff" stroke="#e2ebf5"/><rect x="67" y="69" width="54" height="54" rx="14" fill="#fff"/><path d="M78 109c11-3 18-10 25-22 7-12 12-20 32-24" fill="none" stroke="#1475e6" stroke-width="7" stroke-linecap="round"/><path d="M124 66l10 7-7 9" fill="none" stroke="#1475e6" stroke-width="6" stroke-linecap="round" stroke-linejoin="round"/><rect x="78" y="99" width="20" height="12" rx="3" fill="#1475e6"/><circle cx="84" cy="112" r="4" fill="#0a4ea5"/><circle cx="95" cy="112" r="4" fill="#0a4ea5"/><text x="135" y="88" font-family="Arial,sans-serif" font-size="22" font-weight="800" fill="#fff">Safar Link</text><text x="135" y="112" font-family="Arial,sans-serif" font-size="12" fill="#dbeaff">Operations</text><g font-family="Arial,sans-serif"><rect x="54" y="174" width="200" height="52" rx="14" fill="#fff" opacity=".16"/><text x="83" y="206" font-size="14" font-weight="700" fill="#fff">Overview</text><text x="83" y="267" font-size="14" fill="#dbeaff">Parcels</text><text x="83" y="327" font-size="14" fill="#dbeaff">Tickets</text><text x="83" y="387" font-size="14" fill="#dbeaff">Bus schedules</text><text x="83" y="447" font-size="14" fill="#dbeaff">FAQ</text><text x="54" y="965" font-size="11" font-weight="700" fill="#dbeaff">STAFF OPERATIONS</text></g><circle cx="1345" cy="66" r="5" fill="#21a878"/><text x="1362" y="71" font-family="Arial,sans-serif" font-size="12" font-weight="700" fill="#4f6881">Live</text><rect x="317" y="141" width="1220" height="133" rx="24" fill="#0d67d2"/><text x="352" y="180" font-family="Arial,sans-serif" font-size="12" font-weight="800" letter-spacing="2" fill="#dcecff">TODAY</text><text x="352" y="226" font-family="Arial,sans-serif" font-size="33" font-weight="800" fill="#fff">Everything moving. One place.</text><text x="352" y="254" font-family="Arial,sans-serif" font-size="13" fill="#dcecff">See parcels, passengers and departures across your terminal network.</text><rect x="1310" y="194" width="177" height="42" rx="12" fill="#fff"/><text x="1340" y="221" font-family="Arial,sans-serif" font-size="12" font-weight="800" fill="#0b63ce">+ Register parcel</text><g><rect x="317" y="302" width="292" height="132" rx="19" fill="#fff" stroke="#dde7f2"/><rect x="339" y="326" width="40" height="40" rx="11" fill="#eaf3ff"/><text x="354" y="353" font-family="Arial" font-size="18" font-weight="800" fill="#0b63ce">▣</text><text x="395" y="338" font-family="Arial" font-size="11" fill="#7f91a6">Parcels in transit</text><text x="395" y="368" font-family="Arial" font-size="29" font-weight="800" fill="#102033">128</text><text x="395" y="391" font-family="Arial" font-size="9" fill="#94a2b2">Heading to your terminals</text></g><g><rect x="625" y="302" width="292" height="132" rx="19" fill="#fff" stroke="#dde7f2"/><rect x="647" y="326" width="40" height="40" rx="11" fill="#e8f8f2"/><text x="661" y="353" font-family="Arial" font-size="18" font-weight="800" fill="#16966b">✓</text><text x="703" y="338" font-family="Arial" font-size="11" fill="#7f91a6">Arrived today</text><text x="703" y="368" font-family="Arial" font-size="29" font-weight="800" fill="#102033">64</text><text x="703" y="391" font-family="Arial" font-size="9" fill="#94a2b2">Ready for collection</text></g><g><rect x="933" y="302" width="292" height="132" rx="19" fill="#fff" stroke="#dde7f2"/><rect x="955" y="326" width="40" height="40" rx="11" fill="#fff2e4"/><text x="969" y="353" font-family="Arial" font-size="18" font-weight="800" fill="#d97918">⌑</text><text x="1011" y="338" font-family="Arial" font-size="11" fill="#7f91a6">Tickets today</text><text x="1011" y="368" font-family="Arial" font-size="29" font-weight="800" fill="#102033">213</text><text x="1011" y="391" font-family="Arial" font-size="9" fill="#94a2b2">Booked &amp; active</text></g><g><rect x="1241" y="302" width="296" height="132" rx="19" fill="#fff" stroke="#dde7f2"/><rect x="1263" y="326" width="40" height="40" rx="11" fill="#eef5ff"/><text x="1277" y="353" font-family="Arial" font-size="18" font-weight="800" fill="#0b63ce">◷</text><text x="1319" y="338" font-family="Arial" font-size="11" fill="#7f91a6">Next departure</text><text x="1319" y="368" font-family="Arial" font-size="29" font-weight="800" fill="#102033">15:45</text><text x="1319" y="391" font-family="Arial" font-size="9" fill="#94a2b2">Borama → Hargeisa</text></g><g><rect x="317" y="463" width="770" height="390" rx="22" fill="#fff" stroke="#dde7f2"/><text x="351" y="506" font-family="Arial" font-size="10" font-weight="800" letter-spacing="2" fill="#0b63ce">INCOMING</text><text x="351" y="532" font-family="Arial" font-size="18" font-weight="800" fill="#102033">Parcels heading here</text><text x="1019" y="532" font-family="Arial" font-size="11" font-weight="800" fill="#0b63ce">View all →</text><line x1="351" y1="552" x2="1054" y2="552" stroke="#edf2f7"/><g font-family="Arial"><text x="351" y="594" font-size="12" font-weight="700" fill="#102033">SL-24081</text><text x="351" y="615" font-size="10" fill="#8997a8">Electronics · From Hargeisa</text><text x="870" y="604" font-size="9" font-weight="800" fill="#2e6cb8">IN TRANSIT</text><line x1="351" y1="636" x2="1054" y2="636" stroke="#f0f3f6"/><text x="351" y="677" font-size="12" font-weight="700" fill="#102033">SL-24079</text><text x="351" y="698" font-size="10" fill="#8997a8">Document · From Borama</text><text x="870" y="687" font-size="9" font-weight="800" fill="#a66a1c">LOADED</text><line x1="351" y1="719" x2="1054" y2="719" stroke="#f0f3f6"/><text x="351" y="760" font-size="12" font-weight="700" fill="#102033">SL-24075</text><text x="351" y="781" font-size="10" fill="#8997a8">Clothing · From Burco</text><text x="870" y="770" font-size="9" font-weight="800" fill="#16815f">ARRIVED</text></g></g><g><rect x="1110" y="463" width="427" height="390" rx="22" fill="#fff" stroke="#dde7f2"/><text x="1144" y="506" font-family="Arial" font-size="10" font-weight="800" letter-spacing="2" fill="#0b63ce">UP NEXT</text><text x="1144" y="532" font-family="Arial" font-size="18" font-weight="800" fill="#102033">Bus departures</text><line x1="1144" y1="552" x2="1502" y2="552" stroke="#edf2f7"/><text x="1144" y="594" font-family="Arial" font-size="12" font-weight="800" fill="#102033">15:45</text><text x="1215" y="594" font-family="Arial" font-size="11" fill="#102033">Borama → Hargeisa</text><text x="1144" y="615" font-family="Arial" font-size="9" fill="#8997a8">Bus 08 · Raazim Express</text><line x1="1144" y1="636" x2="1502" y2="636" stroke="#f0f3f6"/><text x="1144" y="678" font-family="Arial" font-size="12" font-weight="800" fill="#102033">17:00</text><text x="1215" y="678" font-family="Arial" font-size="11" fill="#102033">Hargeisa → Burco</text><text x="1144" y="699" font-family="Arial" font-size="9" fill="#8997a8">Bus 11 · Safar Transit</text><line x1="1144" y1="720" x2="1502" y2="720" stroke="#f0f3f6"/><text x="1144" y="762" font-family="Arial" font-size="12" font-weight="800" fill="#102033">19:30</text><text x="1215" y="762" font-family="Arial" font-size="11" fill="#102033">Borama → Burco</text><text x="1144" y="783" font-family="Arial" font-size="9" fill="#8997a8">Bus 14 · North Route</text></g></svg>