<svg xmlns="http://www.w3.org/2000/svg" viewBox="0 0 1200 820" role="img" aria-labelledby="t d"><title id="t">Safar Link parcel tracking screen</title><desc id="d">A parcel record with tracking code, recipient, route, progress and collection status.</desc><rect width="1200" height="820" rx="30" fill="#edf5ff"/><rect x="25" y="25" width="1150" height="770" rx="24" fill="#fff" stroke="#d9e6f5"/><rect x="25" y="25" width="190" height="770" rx="24" fill="#0b63ce"/><g font-family="Arial,sans-serif"><text x="57" y="79" fill="#fff" font-size="21" font-weight="800">Safar Link</text><text x="57" y="101" fill="#dbeaff" font-size="10">Operations</text><text x="57" y="165" fill="#dbeaff" font-size="12">Overview</text><rect x="47" y="185" width="146" height="42" rx="12" fill="#fff" opacity=".16"/><text x="75" y="212" fill="#fff" font-size="12" font-weight="700">Parcels</text><text x="75" y="265" fill="#dbeaff" font-size="12">Tickets</text><text x="75" y="315" fill="#dbeaff" font-size="12">Bus schedules</text><text x="75" y="365" fill="#dbeaff" font-size="12">FAQ</text><text x="47" y="750" fill="#dbeaff" font-size="9" font-weight="800" letter-spacing="1.5">STAFF OPERATIONS</text><text x="246" y="72" fill="#0b63ce" font-size="10" font-weight="800" letter-spacing="2">ITEMS &amp; CARGO</text><text x="246" y="106" fill="#102033" font-size="28" font-weight="800">Parcel tracking</text><text x="246" y="131" fill="#8493a5" font-size="11">Register an item at one terminal and let destination staff see it instantly.</text><rect x="245" y="158" width="902" height="47" rx="12" fill="#f8fbff" stroke="#dce7f2"/><text x="270" y="187" fill="#9aa8b8" font-size="11">Search tracking code, sender or recipient…</text><rect x="245" y="228" width="902" height="500" rx="20" fill="#fff" stroke="#dce7f2"/><g><rect x="275" y="257" width="842" height="112" rx="17" fill="#0b63ce"/><text x="303" y="287" fill="#dcecff" font-size="9" font-weight="800" letter-spacing="2">TRACKING CODE</text><text x="303" y="327" fill="#fff" font-size="30" font-weight="800">SL-24081</text><rect x="915" y="292" width="176" height="38" rx="11" fill="#fff"/><text x="944" y="316" fill="#16815f" font-size="10" font-weight="800">● IN TRANSIT</text></g><g font-family="Arial,sans-serif"><text x="303" y="409" fill="#8997a8" font-size="10" font-weight="800" letter-spacing="1">PARCEL</text><text x="303" y="434" fill="#102033" font-size="16" font-weight="800">Electronics · 1 item</text><text x="303" y="468" fill="#8997a8" font-size="10" font-weight="800" letter-spacing="1">RECIPIENT</text><text x="303" y="493" fill="#102033" font-size="16" font-weight="800">Ayaan Mohamed</text><text x="303" y="517" fill="#8997a8" font-size="10">+252 63 000 0000</text><text x="303" y="555" fill="#8997a8" font-size="10" font-weight="800" letter-spacing="1">ROUTE</text><text x="303" y="581" fill="#102033" font-size="16" font-weight="800">Hargeisa</text><line x1="374" y1="575" x2="585" y2="575" stroke="#b9cfe7" stroke-width="2"/><circle cx="374" cy="575" r="6" fill="#0b63ce"/><circle cx="585" cy="575" r="6" fill="#0b63ce"/><text x="606" y="581" fill="#102033" font-size="16" font-weight="800">Borama</text><text x="303" y="629" fill="#8997a8" font-size="10" font-weight="800" letter-spacing="1">LATEST UPDATE</text><text x="303" y="655" fill="#102033" font-size="14" font-weight="700">Loaded for the next departure</text><text x="303" y="678" fill="#8997a8" font-size="10">Destination terminal can now see the parcel.</text><line x1="780" y1="405" x2="780" y2="676" stroke="#edf2f7"/><text x="813" y="432" fill="#0b63ce" font-size="9" font-weight="800" letter-spacing="2">MOVEMENT</text><circle cx="824" cy="475" r="8" fill="#0b63ce"/><line x1="824" y1="485" x2="824" y2="545" stroke="#9ec3eb" stroke-width="2"/><circle cx="824" cy="555" r="8" fill="#9ec3eb"/><line x1="824" y1="565" x2="824" y2="625" stroke="#d6e4f2" stroke-width="2"/><circle cx="824" cy="635" r="8" fill="#d6e4f2"/><text x="852" y="479" fill="#102033" font-size="12" font-weight="800">Registered</text><text x="852" y="498" fill="#8997a8" font-size="9">Hargeisa terminal · 09:14</text><text x="852" y="559" fill="#102033" font-size="12" font-weight="800">Loaded</text><text x="852" y="578" fill="#8997a8" font-size="9">Assigned to route · 10:03</text><text x="852" y="639" fill="#8997a8" font-size="12" font-weight="800">Arrived</text><text x="852" y="658" fill="#8997a8" font-size="9">Waiting at Borama terminal</text></g></g></svg>